<svg id="Camada_1" data-name="Camada 1" xmlns="http://www.w3.org/2000/svg" viewBox="0 0 484.52 307.07"><defs><style>.cls-1{fill:#fff;}</style></defs><path class="cls-1" d="M653.69,581.79c-5.09,4.9-13.63,5.72-20.47,3.25-7.83-2.82-13.94-8.91-19.79-14.82l-41.2-41.68c-2.45-2.48-5.28-5.13-8.76-5.19s-6.66,2.74-8.06,6-1.47,6.93-1.51,10.48q-.36,29.83-.71,59.68c-.08,6.68-.51,14.19-5.49,18.64-5.28,4.72-13.31,4-20.31,2.91-4.64-.7-9.83-1.74-12.4-5.66-1.57-2.41-1.79-5.42-2-8.29-.85-13.85-.16-29.26-.47-43.73-21.74,16.16-53.36,23.47-79.27,15.58a88.36,88.36,0,0,1-56.63-54.11c-16.79-47.33,12.25-99.73,59.07-115.33,9.75-3.24,20.9-4.5,30,.32s14.35,17.42,8.61,25.94c-5.59,8.3-17.33,8.66-27,11.17-20,5.16-35.66,23.94-37.17,44.54S421.37,533,440.39,541s42.88,2.6,56.57-12.85c16.81-19,16.75-47.06,15.75-72.38L511,413.05c-.38-9.84-.41-20.75,6.1-28.15,7.39-8.39,22.4-8.16,29.53.46,5.57,6.74,6,16.24,6.1,25l1.11,73.46,62.49-62c4.65-4.62,9.43-9.33,15.39-12s13.46-3,18.7.89c6.26,4.68,7.39,14,4.74,21.37s-8.26,13.19-13.71,18.8l-46.12,47.43,48.44,47.87c4.57,4.51,9.22,9.15,12,14.93s3.37,13.05-.16,18.41A13.51,13.51,0,0,1,653.69,581.79Z" transform="translate(-297.44 -378.75)"/><path class="cls-1" d="M333.12,677.7c0,2.56-1.7,4.21-4.57,5.92a20,20,0,0,1-9.4,2.13A21.78,21.78,0,0,1,319,642.2a20.46,20.46,0,0,1,9.64,2.19c2.68,1.65,4.51,3.36,4.51,5.86a4.44,4.44,0,0,1-4.63,4.51,6.84,6.84,0,0,1-3.78-1.28,9.63,9.63,0,0,0-5.56-1.77c-6.16,0-11.22,5.5-11.22,12.27s4.94,12.26,11.35,12.26a9.7,9.7,0,0,0,5.43-1.77,6.65,6.65,0,0,1,3.78-1.28A4.44,4.44,0,0,1,333.12,677.7Z" transform="translate(-297.44 -378.75)"/><path class="cls-1" d="M369,669.59c0,10.92-9.51,16.16-16.47,16.16S336,680.51,336,669.59s9.52-16.35,16.53-16.35S369,658.73,369,669.59Zm-23.36,0c0,4.57,3.05,7.75,6.89,7.75s6.9-3.18,6.9-7.75c0-4.76-3.12-7.93-6.9-7.93S345.63,664.83,345.63,669.59Z" transform="translate(-297.44 -378.75)"/><path class="cls-1" d="M406.08,668.43v12.38a4.85,4.85,0,0,1-9.7,0V668.43c0-4.76-2.2-6.89-5.43-6.89-5,0-6.1,5.06-6.1,5.73v13.54a4.88,4.88,0,0,1-9.76,0V658.36a4.88,4.88,0,1,1,9.76,0v1.89c.18-2.25,3.66-7,9.88-7S406.08,657.69,406.08,668.43Z" transform="translate(-297.44 -378.75)"/><path class="cls-1" d="M443.84,667.94c0,3.85-2.08,5.13-6,5.13l-15.56-.19c.86,3.11,3.36,4.94,7.32,4.94a11.54,11.54,0,0,0,3.85-.67,11.6,11.6,0,0,1,3.54-1,3.07,3.07,0,0,1,3.23,3.23c0,1.16-.49,2.56-2.32,4a16.18,16.18,0,0,1-8.72,2.25c-8.3,0-17-4.94-17-16s9.33-16.35,16.28-16.35S443.84,658.79,443.84,667.94Zm-21.54-1.52h12c-.61-3.48-3-4.76-5.8-4.76S422.85,662.94,422.3,666.42Z" transform="translate(-297.44 -378.75)"/><path class="cls-1" d="M475.74,681.36a4.36,4.36,0,0,1-7.87,2.5L461.16,676l-6.71,7.87a4.41,4.41,0,0,1-3.42,1.77,4.53,4.53,0,0,1-4.45-4.27,3.86,3.86,0,0,1,1-2.62l8.11-9.21-8.11-9.21a4,4,0,0,1-1-2.57,4.55,4.55,0,0,1,4.45-4.33,4.15,4.15,0,0,1,3.42,1.77l6.65,7.87,6.65-7.87a4.36,4.36,0,0,1,3.48-1.77,4.53,4.53,0,0,1,4.39,4.33,4,4,0,0,1-1,2.57l-8.11,9.21,8.11,9.21A3.56,3.56,0,0,1,475.74,681.36Z" transform="translate(-297.44 -378.75)"/><path class="cls-1" d="M510.94,658.24v22.64a5,5,0,0,1-5,4.81,4.88,4.88,0,0,1-4.75-3.78c-.92,1.59-3.6,3.84-8.06,3.84-6.71,0-14.64-5.12-14.64-16.28,0-10.86,8.06-16.23,14.64-16.23,4.15,0,7.14,2.32,7.93,4.45v.55a4.93,4.93,0,0,1,4.88-4.82A5.08,5.08,0,0,1,510.94,658.24ZM482.2,645.43a8.38,8.38,0,0,1,8.42-6c4.27,0,8.36,4.27,11.47,4.27a3.33,3.33,0,0,0,2.2-.73,3,3,0,0,1,2-.79,2.35,2.35,0,0,1,2.38,3.05c-1.22,3.35-4,6-7.63,6-4.88,0-9.15-4.95-12.38-4.95a2.16,2.16,0,0,0-2,1,2.75,2.75,0,0,1-2.2,1.16A2.3,2.3,0,0,1,482.2,645.43Zm19.28,24c0-6-3.84-7.93-6.53-7.93-3.47,0-6.71,2.74-6.71,7.93s3.24,8,6.71,8C497.64,677.46,501.48,675.57,501.48,669.47Z" transform="translate(-297.44 -378.75)"/><path class="cls-1" d="M550,669.59c0,10.92-9.52,16.16-16.47,16.16S517,680.51,517,669.59s9.52-16.35,16.54-16.35S550,658.73,550,669.59Zm-23.37,0c0,4.57,3.05,7.75,6.9,7.75s6.89-3.18,6.89-7.75c0-4.76-3.11-7.93-6.89-7.93S526.67,664.83,526.67,669.59Z" transform="translate(-297.44 -378.75)"/><path class="cls-1" d="M611.34,681.48a4.42,4.42,0,0,1-4.45,4.34,4.55,4.55,0,0,1-3.23-1.47l-13.49-15.68-5.91,6.16v6a5,5,0,0,1-5,5,5,5,0,0,1-5-4.94V647.14a5,5,0,0,1,10,0v14.34l17.2-17.64a5,5,0,0,1,3.6-1.7,4.49,4.49,0,0,1,4.51,4.45,4.91,4.91,0,0,1-1,2.81L596.4,662.15l13.84,16.41A4.39,4.39,0,0,1,611.34,681.48Z" transform="translate(-297.44 -378.75)"/><path class="cls-1" d="M645.62,658.24v22.64a5,5,0,0,1-5,4.81,4.89,4.89,0,0,1-4.76-3.78c-.91,1.59-3.6,3.84-8.05,3.84-6.71,0-14.64-5.12-14.64-16.28,0-10.86,8.05-16.23,14.64-16.23,4.15,0,7.14,2.32,7.93,4.45v.55a4.93,4.93,0,0,1,4.88-4.82A5.08,5.08,0,0,1,645.62,658.24Zm-9.45,11.23c0-6-3.84-7.93-6.53-7.93-3.48,0-6.71,2.74-6.71,7.93s3.23,8,6.71,8C632.33,677.46,636.17,675.57,636.17,669.47Z" transform="translate(-297.44 -378.75)"/><path class="cls-1" d="M705.22,668.43v12.38a4.88,4.88,0,0,1-9.76,0V668.43c0-4.76-2.2-6.89-5.37-6.89-5,0-6.16,5.06-6.16,5.73v13.54a4.85,4.85,0,0,1-9.7,0V668.43c0-4.76-2.19-6.89-5.43-6.89-5,0-6.1,5.06-6.1,5.73v13.54a4.88,4.88,0,0,1-9.76,0V658.36a4.88,4.88,0,1,1,9.76,0v1.89c.18-2.25,3.66-7,9.88-7,4.52,0,8.36,2.26,10.19,7.38a12.05,12.05,0,0,1,11-7.38C700.16,653.3,705.22,657.69,705.22,668.43Z" transform="translate(-297.44 -378.75)"/><path class="cls-1" d="M745,669.47c0,11.16-7.93,16.28-14.64,16.28-4.45,0-7.14-2.25-8.05-3.84a4.89,4.89,0,0,1-4.76,3.78,5,5,0,0,1-5-4.81V646.59a5,5,0,0,1,5-4.82,4.87,4.87,0,0,1,4.82,4.82v10.92a3,3,0,0,1,.06.73v-.55c.79-2.13,3.78-4.45,7.93-4.45C736.94,653.24,745,658.61,745,669.47Zm-9.76,0c0-5.19-3.23-7.93-6.71-7.93-2.68,0-6.53,2-6.53,7.93s3.85,8,6.53,8C732,677.46,735.23,674.71,735.23,669.47Z" transform="translate(-297.44 -378.75)"/><path class="cls-1" d="M782,658.24v22.64a5,5,0,0,1-5,4.81,4.88,4.88,0,0,1-4.76-3.78c-.92,1.59-3.6,3.84-8.06,3.84-6.71,0-14.64-5.12-14.64-16.28,0-10.86,8.06-16.23,14.64-16.23,4.15,0,7.14,2.32,7.93,4.45v.55a4.93,4.93,0,0,1,4.89-4.82A5.08,5.08,0,0,1,782,658.24Zm-9.46,11.23c0-6-3.84-7.93-6.53-7.93-3.47,0-6.71,2.74-6.71,7.93s3.24,8,6.71,8C768.66,677.46,772.5,675.57,772.5,669.47Z" transform="translate(-297.44 -378.75)"/></svg>